<svg fill="none" height="480" viewBox="0 0 500 480" width="500" xmlns="http://www.w3.org/2000/svg" xmlns:xlink="http://www.w3.org/1999/xlink"><filter id="a" color-interpolation-filters="sRGB" filterUnits="userSpaceOnUse" height="72.8828" width="72.8823" x="344.368" y="140.412"><feFlood flood-opacity="0" result="BackgroundImageFix"/><feBlend in="SourceGraphic" in2="BackgroundImageFix" mode="normal" result="shape"/><feGaussianBlur result="effect1_foregroundBlur_1028_964" stdDeviation="10.5"/></filter><linearGradient id="b" gradientUnits="userSpaceOnUse" x1="434.5" x2="48.2226" y1="210" y2="58.8072"><stop offset="0" stop-color="#fff" stop-opacity="0"/><stop offset="1" stop-color="#f0f2f9"/></linearGradient><radialGradient id="c" cx="0" cy="0" gradientTransform="matrix(0 40.2574 -40.2574 0 377.5 194.5)" gradientUnits="userSpaceOnUse" r="1"><stop offset="0" stop-opacity=".47"/><stop offset="1" stop-opacity="0"/></radialGradient><linearGradient id="d"><stop offset="0" stop-color="#fff" stop-opacity=".48"/><stop offset="1" stop-color="#fff" stop-opacity="0"/></linearGradient><linearGradient id="e" gradientUnits="userSpaceOnUse" x1="358.554" x2="242.956" xlink:href="#d" y1="226.723" y2="282.349"/><linearGradient id="f" gradientUnits="userSpaceOnUse" x1="343.992" x2="340.23" xlink:href="#d" y1="228.548" y2="234.571"/><mask id="g" height="75" maskUnits="userSpaceOnUse" width="75" x="340" y="157"><circle cx="377.5" cy="194.5" fill="#4a6cf7" opacity=".8" r="37.5"/></mask><rect fill="#fff" height="480" rx="2" width="500"/><path d="m35 117h225v156h-225z" fill="url(#b)"/><path d="m35 80.5h430" stroke="#dce1f1"/><rect fill="#eaeff7" height="156" rx="2" width="175" x="290" y="117"/><rect fill="#e9eef6" height="142" rx="2" width="430" x="35" y="303"/><g fill="#fff"><rect height="8" rx="2" width="229" x="194" y="353"/><rect height="8" rx="2" width="152" x="194" y="370"/><rect height="8" rx="2" width="187" x="194" y="387"/><rect height="100" rx="2" width="100" x="59" y="324"/></g><rect fill="#e7ecf5" height="18" rx="2" width="327" x="138" y="35"/><circle cx="39.2391" cy="44.2391" fill="#fa584e" r="4.23913"/><circle cx="54.5" cy="44.2391" fill="#fbb527" r="4.23913"/><circle cx="69.7609" cy="44.2391" fill="#32c133" r="4.23913"/><circle cx="377.5" cy="194.5" fill="#4a6cf7" opacity=".8" r="37.5"/><g mask="url(#g)"><circle cx="377.5" cy="194.5" fill="url(#c)" opacity=".8" r="37.5"/><g filter="url(#a)" opacity=".8"><circle cx="380.809" cy="176.853" fill="#fff" r="15.4412"/></g></g><path d="m342.034 231.847c-17.07 30.902-64.095 81.339-115.64 35.871" stroke="url(#e)" stroke-dasharray="2 2" stroke-linecap="round" stroke-linejoin="round"/><path d="m339.077 230.867 4.896-1.896.589 4.685" stroke="url(#f)" stroke-dasharray="2 2" stroke-linecap="round" stroke-linejoin="round"/></svg>