<svg fill="none" height="480" viewBox="0 0 500 480" width="500" xmlns="http://www.w3.org/2000/svg" xmlns:xlink="http://www.w3.org/1999/xlink"><linearGradient id="a" gradientUnits="userSpaceOnUse" x1="156.747" x2="-149.033" y1="216.683" y2="282.186"><stop offset="0" stop-color="#f0f2f9"/><stop offset="1" stop-color="#fff" stop-opacity="0"/></linearGradient><linearGradient id="b"><stop offset="0" stop-color="#fff" stop-opacity=".48"/><stop offset="1" stop-color="#fff" stop-opacity="0"/></linearGradient><linearGradient id="c" gradientUnits="userSpaceOnUse" x1="374.3" x2="361.897" xlink:href="#b" y1="234.975" y2="369.833"/><linearGradient id="d" gradientUnits="userSpaceOnUse" x1="378.318" x2="378.318" y1="233" y2="237.617"><stop offset="0" stop-color="#fff" stop-opacity=".55"/><stop offset="1" stop-color="#fff" stop-opacity=".62"/></linearGradient><linearGradient id="e" gradientUnits="userSpaceOnUse" x1="432.22" x2="442.533" y1="95.6425" y2="207.784"><stop offset="0" stop-color="#5f7597" stop-opacity=".48"/><stop offset="1" stop-color="#fff" stop-opacity="0"/></linearGradient><linearGradient id="f" gradientUnits="userSpaceOnUse" x1="418.483" x2="429.732" xlink:href="#b" y1="175.882" y2="208.225"/><linearGradient id="g" gradientUnits="userSpaceOnUse" x1="396" x2="359.25" y1="42" y2="42"><stop offset="0" stop-color="#fff" stop-opacity=".28"/><stop offset="1" stop-color="#fff" stop-opacity="0"/></linearGradient><clipPath id="h"><path d="m0 0h12v12h-12z" transform="matrix(.97602591 -.21765437 .21765437 .97602591 386.13 156.742)"/></clipPath><rect fill="#fff" height="170" rx="2" width="170" x="330" y="310"/><rect fill="#4a6cf7" height="80.7651" rx="2" transform="matrix(.97066279 -.2404449 .2404449 .97066279 -77.342127 97.773513)" width="80.7651" x="362" y="365.831"/><path d="m412.572 402.039c-1.337.331-2.75.117-3.929-.594s-2.028-1.861-2.359-3.198c-.466-1.881.151-3.781 1.434-5.008l13.973-13.482-5.303 18.395c-.432 1.854-1.85 3.4-3.816 3.887zm-5.41-21.839c3.041-.753 6.088-.616 8.899.149l-3.024 2.907c-1.603-.209-3.362-.112-5.042.304-3.565.883-6.632 3.145-8.528 6.29s-2.465 6.914-1.583 10.478c.92 3.713 3.247 6.702 6.283 8.518l.016-.004c.818.493 1.08 1.551.587 2.368-.493.818-1.568 1.084-2.381.608-3.794-2.287-6.716-6.021-7.864-10.658-1.104-4.455-.393-9.166 1.977-13.097 2.371-3.931 6.205-6.759 10.66-7.863zm20.961 12.638c1.148 4.636.307 9.302-1.98 13.096-.497.801-1.556 1.063-2.373.57-.818-.493-1.08-1.551-.587-2.369 1.833-3.039 2.5-6.752 1.58-10.465-.416-1.68-1.151-3.281-2.114-4.647l1.159-4.031c2.018 2.174 3.557 4.788 4.315 7.846z" fill="#fff"/><rect fill="#fff" height="480" rx="2" width="300"/><rect fill="#dae2f0" fill-opacity=".66" height="134" rx="2" width="230" x="35" y="35"/><rect fill="#dae2f0" height="27" opacity=".53" rx="2" width="230" x="35" y="194"/><path d="m35 246h137v199h-137z" fill="url(#a)"/><rect fill="#dae2f0" height="64" opacity=".57" rx="2" width="78" x="187" y="246"/><rect fill="#dae2f0" height="55" opacity=".6" rx="2" width="78" x="187" y="322"/><rect fill="#dae2f0" height="56" opacity=".5" rx="2" width="78" x="187" y="389"/><path d="m377.795 371.295c-19.313-21.523-46.221-78.844.653-135.939" stroke="url(#c)" stroke-dasharray="2 2" stroke-linecap="round" stroke-linejoin="round"/><path d="m375.753 233.513 5.13-.513v4.617" stroke="url(#d)" stroke-dasharray="2 2" stroke-linecap="round" stroke-linejoin="round"/><rect fill="#fff" height="280" rx="2" width="170" x="330"/><rect fill="#36a269" height="19.5283" rx="9.76415" width="69" x="384" y="213"/><path d="m399.37 219.51v3.667c0 .771-.532 1.326-1.398 1.326-.863 0-1.398-.555-1.398-1.326v-3.667h-.857v3.736c0 1.193.893 2.039 2.255 2.039s2.258-.846 2.258-2.039v-3.736z" fill="#fff"/><path d="m401.41 226.788h.829v-2.26h.05c.15.272.455.746 1.232.746 1.032 0 1.781-.827 1.781-2.205 0-1.382-.761-2.194-1.79-2.194-.79 0-1.076.482-1.223.746h-.069v-.691h-.81zm.812-3.728c0-.89.389-1.481 1.113-1.481.752 0 1.129.635 1.129 1.481 0 .855-.389 1.507-1.129 1.507-.713 0-1.113-.611-1.113-1.507z" fill="#fff"/><path d="m407.826 225.274c.776 0 1.082-.474 1.231-.746h.07v.663h.81v-5.681h-.83v2.111h-.05c-.149-.264-.432-.746-1.226-.746-1.029 0-1.786.812-1.786 2.194 0 1.378.746 2.205 1.781 2.205zm.183-.707c-.741 0-1.126-.652-1.126-1.507 0-.846.377-1.481 1.126-1.481.724 0 1.112.591 1.112 1.481 0 .896-.396 1.507-1.112 1.507z" fill="#fff"/><path d="m412.36 225.285c.705 0 1.102-.358 1.26-.677h.033v.583h.81v-2.83c0-1.24-.976-1.486-1.653-1.486-.771 0-1.481.31-1.759 1.087l.78.177c.122-.302.432-.593.99-.593.535 0 .81.28.81.763v.019c0 .302-.311.297-1.076.386-.808.094-1.634.305-1.634 1.273 0 .838.629 1.298 1.439 1.298zm.181-.666c-.469 0-.807-.211-.807-.621 0-.444.393-.602.873-.666.269-.036.907-.108 1.027-.227v.549c0 .505-.403.965-1.093.965z" fill="#fff"/><path d="m417.557 220.93h-.874v-1.021h-.83v1.021h-.624v.666h.624v2.516c-.002.774.589 1.148 1.243 1.134.264-.003.441-.052.538-.089l-.149-.685c-.056.011-.159.036-.292.036-.269 0-.51-.088-.51-.568v-2.344h.874z" fill="#fff"/><path d="m420.265 225.277c.929 0 1.586-.458 1.775-1.151l-.785-.142c-.15.402-.51.608-.982.608-.71 0-1.187-.461-1.209-1.282h3.029v-.294c0-1.54-.921-2.141-1.887-2.141-1.187 0-1.969.904-1.969 2.213 0 1.323.771 2.189 2.028 2.189zm-1.199-2.588c.034-.605.472-1.129 1.146-1.129.644 0 1.065.477 1.068 1.129z" fill="#fff"/><path d="m429.732 219.51h-.849v4.172h-.053l-2.89-4.172h-.793v5.681h.857v-4.167h.053l2.887 4.167h.788z" fill="#fff"/><path d="m432.71 225.277c1.202 0 1.987-.88 1.987-2.197 0-1.326-.785-2.205-1.987-2.205-1.201 0-1.986.879-1.986 2.205 0 1.317.785 2.197 1.986 2.197zm.003-.697c-.785 0-1.151-.685-1.151-1.503 0-.816.366-1.509 1.151-1.509.78 0 1.146.693 1.146 1.509 0 .818-.366 1.503-1.146 1.503z" fill="#fff"/><path d="m436.416 225.191h.844l.865-3.077h.064l.865 3.077h.846l1.251-4.261h-.857l-.829 3.115h-.042l-.832-3.115h-.857l-.838 3.129h-.041l-.835-3.129h-.857z" fill="#fff"/><path d="m429.313 209c16.06-17.898 38.436-65.563-.543-113.0402" stroke="url(#e)" stroke-dasharray="2 2" stroke-linecap="round" stroke-linejoin="round"/><path d="m431.011 94.4266-4.265-.4266v3.8392" stroke="#9caeca" stroke-dasharray="2 2" stroke-linecap="round" stroke-linejoin="round"/><path d="m425.919 209.551c3.431-6.457 6.547-22.163-8.431-33.323" stroke="url(#f)" stroke-dasharray="2 2" stroke-linecap="round" stroke-linejoin="round" stroke-width=".7"/><rect fill="#dae2f0" height="18.8" rx="1.9" stroke="#dae2f0" stroke-width=".2" width="75.8" x="348.1" y="72.1"/><g fill="#fff"><path d="m371 83.5384h.658v-1.9027h1.854v-.5647h-1.854v-1.3295h2.048v-.5668h-2.706z"/><path d="m376.333 82.1811c.002.5561-.412.8203-.77.8203-.394 0-.667-.2855-.667-.7308v-2.005h-.637v2.0817c0 .8118.446 1.2337 1.074 1.2337.492 0 .827-.26.978-.6094h.034v.5668h.627v-3.2728h-.639z"/><path d="m378.465 79.1747h-.637v4.3637h.637z"/><path d="m379.959 79.1747h-.637v4.3637h.637z"/><path d="m381.219 84.7656c.526 0 .858-.2748 1.048-.7905l1.353-3.7031-.688-.0064-.829 2.5398h-.034l-.829-2.5398h-.682l1.198 3.3154-.079.2173c-.162.4347-.39.4709-.739.375l-.154.522c.077.0341.243.0703.435.0703z"/><path d="m385.859 83.5384h.659v-1.6513h.895.042l.887 1.6513h.75l-.968-1.7664c.535-.1981.801-.6434.801-1.2294 0-.8033-.498-1.3679-1.51-1.3679h-1.556zm.659-2.2181v-1.581h.826c.65 0 .919.309.919.8033 0 .4922-.269.7777-.91.7777z"/><path d="m391.045 83.6044c.714 0 1.219-.3516 1.364-.8842l-.603-.1087c-.115.309-.392.4666-.755.4666-.545 0-.912-.3537-.929-.9843h2.327v-.2259c0-1.1825-.707-1.6449-1.449-1.6449-.912 0-1.513.6946-1.513 1.7003 0 1.0163.593 1.6811 1.558 1.6811zm-.921-1.9879c.026-.4645.363-.8672.88-.8672.495 0 .819.3665.821.8672z"/><path d="m395.608 81.0646c-.132-.5092-.53-.8416-1.238-.8416-.739 0-1.263.3899-1.263.9695 0 .4645.281.7734.895.9098l.554.1214c.315.0703.462.211.462.4155 0 .2536-.27.4517-.688.4517-.381 0-.627-.1641-.703-.4858l-.616.0938c.107.5795.588.9055 1.323.9055.791 0 1.338-.4197 1.338-1.0121 0-.4623-.294-.7478-.895-.8863l-.52-.1194c-.36-.0852-.515-.2066-.513-.4282-.002-.2514.271-.4304.633-.4304.396 0 .579.2194.654.4389z"/><path d="m396.373 84.7656h.637v-1.7365h.038c.115.2088.35.5732.946.5732.793 0 1.368-.635 1.368-1.6939 0-1.0611-.584-1.6854-1.374-1.6854-.607 0-.827.3708-.94.5732h-.053v-.5306h-.622zm.624-2.8636c0-.684.298-1.1378.854-1.1378.578 0 .868.4879.868 1.1378 0 .6562-.299 1.1569-.868 1.1569-.547 0-.854-.4687-.854-1.1569z"/><path d="m401.454 83.6044c.923 0 1.526-.6754 1.526-1.6875 0-1.0185-.603-1.6939-1.526-1.6939-.922 0-1.525.6754-1.525 1.6939 0 1.0121.603 1.6875 1.525 1.6875zm.002-.5348c-.602 0-.884-.5263-.884-1.1548 0-.6264.282-1.1591.884-1.1591.599 0 .88.5327.88 1.1591 0 .6285-.281 1.1548-.88 1.1548z"/><path d="m404.328 81.5952c0-.522.32-.8203.763-.8203.432 0 .695.2833.695.7585v2.005h.637v-2.0817c0-.8097-.446-1.2337-1.115-1.2337-.492 0-.814.228-.965.5753h-.04v-.5327h-.612v3.2728h.637z"/><path d="m409.729 81.0646c-.132-.5092-.53-.8416-1.238-.8416-.739 0-1.263.3899-1.263.9695 0 .4645.281.7734.895.9098l.554.1214c.315.0703.462.211.462.4155 0 .2536-.27.4517-.688.4517-.381 0-.626-.1641-.703-.4858l-.616.0938c.107.5795.588.9055 1.323.9055.791 0 1.338-.4197 1.338-1.0121 0-.4623-.294-.7478-.895-.8863l-.519-.1194c-.361-.0852-.516-.2066-.514-.4282-.002-.2514.271-.4304.633-.4304.396 0 .579.2194.654.4389z"/><path d="m410.494 83.5384h.637v-3.2728h-.637zm.322-3.7777c.219 0 .402-.1705.402-.3793s-.183-.3814-.402-.3814c-.222 0-.403.1726-.403.3814s.181.3793.403.3793z"/><path d="m414.788 80.2656h-.684l-.827 2.5185h-.034l-.829-2.5185h-.684l1.189 3.2728h.682z"/><path d="m416.68 83.6044c.713 0 1.218-.3516 1.363-.8842l-.603-.1087c-.115.309-.392.4666-.754.4666-.545 0-.912-.3537-.929-.9843h2.327v-.2259c0-1.1825-.708-1.6449-1.449-1.6449-.912 0-1.513.6946-1.513 1.7003 0 1.0163.592 1.6811 1.558 1.6811zm-.921-1.9879c.026-.4645.362-.8672.88-.8672.495 0 .818.3665.821.8672z"/></g><circle cx="359.5" cy="81.5" fill="#4a6cf7" r="6.5"/><path d="m357.167 79.7503h4.666v2.9167h-4.666zm4.666 3.5c.155 0 .303-.0614.413-.1708.109-.1094.171-.2578.171-.4125v-2.9167c0-.3237-.263-.5833-.584-.5833h-4.666c-.324 0-.584.2596-.584.5833v2.9167c0 .1547.062.3031.171.4125.11.1094.258.1708.413.1708h-1.167v.5834h7v-.5834z" fill="#fff"/><rect fill="#4a6cf7" height="34" rx="1" transform="matrix(.97602591 -.21765437 .21765437 .97602591 -23.357572 84.742834)" width="34" x="373" y="148.4"/><circle cx="393.293" cy="161.293" fill="#fff" r="10" transform="matrix(.97602591 -.21765437 .21765437 .97602591 -25.677284 89.468792)"/><g clip-path="url(#h)"><path d="m398.281 159.94-2.025-1.287c-.15-.096-.241-.032-.202.142l.379 1.701-1.894.422c-.184-.625-.801-1.017-1.445-.918l-.419-1.881 1.7-.379c.175-.039.194-.148.043-.244l-2.025-1.286c-.151-.096-.35-.051-.445.099l-1.287 2.025c-.096.151-.032.241.142.202l1.701-.379.419 1.88c-.625.185-1.018.801-.918 1.445l-1.894.423-.379-1.7c-.039-.174-.148-.193-.243-.043l-1.287 2.026c-.096.15-.051.349.099.445l2.025 1.286c.151.096.241.033.202-.142l-.379-1.701 1.891-.422c.185.625.802 1.017 1.446.918l.422 1.891-1.7.379c-.174.039-.193.148-.043.244l2.026 1.286c.15.096.349.052.445-.099l1.287-2.025c.095-.151.032-.241-.143-.202l-1.698.379-.421-1.89c.625-.185 1.017-.801.918-1.445l1.892-.422.379 1.701c.039.174.147.193.243.043l1.287-2.026c.096-.15.052-.351-.099-.446z" fill="#4a6cf7"/></g><rect fill="#dae2f0" height="19.8" rx="1.9" stroke="#dae2f0" stroke-width=".2" width="80.8" x="398.1" y="32.1"/><rect fill="#4a6cf7" height="14" rx="1" width="14" x="462" y="35"/><path d="m468.998 38c-2.207 0-3.998 1.7911-3.998 3.9982 0 2.2107 1.791 4.0018 3.998 4.0018 2.211 0 4.002-1.7911 4.002-4.0018 0-2.2071-1.791-3.9982-4.002-3.9982zm.002 7.5237c-1.946 0-3.524-1.5781-3.524-3.5237s1.578-3.5237 3.524-3.5237 3.524 1.5781 3.524 3.5237-1.578 3.5237-3.524 3.5237zm0-6.5957v6.1413c1.694 0 3.071-1.377 3.071-3.0711 0-1.6905-1.377-3.0702-3.071-3.0702z" fill="#fff"/><path d="m405.699 43.3636.4-1.1548h1.705l.398 1.1548h.699l-1.57-4.3636h-.761l-1.57 4.3636zm.592-1.7088.644-1.8622h.034l.643 1.8622z" fill="#fff"/><path d="m410.117 39h-.637v4.3636h.637z" fill="#fff"/><path d="m411.684 43.3636h.648l.664-2.3629h.049l.665 2.3629h.65l.961-3.2727h-.658l-.637 2.3928h-.032l-.64-2.3928h-.658l-.643 2.4034h-.032l-.642-2.4034h-.658z" fill="#fff"/><path d="m416.878 43.4361c.541 0 .846-.2749.967-.5199h.026v.4474h.622v-2.1733c0-.9524-.75-1.142-1.27-1.142-.592 0-1.138.2386-1.351.8352l.599.1364c.094-.2323.332-.456.761-.456.411 0 .622.2152.622.586v.0149c0 .2322-.239.228-.827.2961-.62.0725-1.255.2344-1.255.978 0 .6435.484.9972 1.106.9972zm.139-.5114c-.361 0-.621-.1619-.621-.4773 0-.3409.303-.4623.672-.5113.206-.0277.696-.0831.788-.1747v.4218c0 .3878-.309.7415-.839.7415z" fill="#fff"/><path d="m419.627 44.5909c.526 0 .859-.2748 1.048-.7905l1.353-3.7031-.688-.0064-.829 2.5398h-.034l-.829-2.5398h-.681l1.197 3.3153-.079.2174c-.162.4346-.39.4709-.739.375l-.154.522c.077.0341.243.0703.435.0703z" fill="#fff"/><path d="m425.081 40.8899c-.132-.5092-.53-.8416-1.238-.8416-.739 0-1.263.3899-1.263.9695 0 .4644.281.7734.895.9098l.554.1214c.315.0703.462.2109.462.4155 0 .2535-.271.4517-.688.4517-.382 0-.627-.1641-.703-.4858l-.616.0937c.106.5796.588.9056 1.323.9056.79 0 1.338-.4198 1.338-1.0121 0-.4623-.294-.7479-.895-.8864l-.52-.1193c-.36-.0852-.515-.2066-.513-.4282-.002-.2515.27-.4304.633-.4304.396 0 .579.2194.654.4389z" fill="#fff"/><path d="m429.507 42.0064c.002.5561-.412.8203-.77.8203-.394 0-.667-.2855-.667-.7308v-2.005h-.637v2.0817c0 .8118.446 1.2336 1.074 1.2336.492 0 .827-.2599.978-.6093h.034v.5667h.627v-3.2727h-.639z" fill="#fff"/><path d="m431.002 44.5909h.637v-1.7365h.038c.115.2088.35.5732.946.5732.793 0 1.368-.635 1.368-1.6939 0-1.0611-.584-1.6854-1.374-1.6854-.607 0-.827.3707-.94.5731h-.053v-.5305h-.622zm.624-2.8636c0-.684.298-1.1378.854-1.1378.578 0 .868.4879.868 1.1378 0 .6562-.299 1.1569-.868 1.1569-.547 0-.854-.4687-.854-1.1569z" fill="#fff"/><path d="m437.82 40.0909h-.671v-.7841h-.637v.7841h-.479v.5114h.479v1.9325c-.002.5945.452.8821.955.8714.202-.0021.339-.0404.413-.0681l-.115-.5263c-.043.0085-.121.0277-.224.0277-.206 0-.392-.0682-.392-.4368v-1.8004h.671z" fill="#fff"/><path d="m439.869 43.4297c.922 0 1.525-.6754 1.525-1.6875 0-1.0185-.603-1.6939-1.525-1.6939-.923 0-1.526.6754-1.526 1.6939 0 1.0121.603 1.6875 1.526 1.6875zm.002-.5348c-.603 0-.884-.5263-.884-1.1548 0-.6265.281-1.1591.884-1.1591.598 0 .88.5326.88 1.1591 0 .6285-.282 1.1548-.88 1.1548z" fill="#fff"/><path d="m444.918 43.4276c.597 0 .831-.3644.946-.5732h.054v.5092h.622v-4.3636h-.637v1.6214h-.039c-.115-.2024-.332-.5731-.941-.5731-.791 0-1.373.6243-1.373 1.6854 0 1.0589.574 1.6939 1.368 1.6939zm.141-.5434c-.569 0-.865-.5007-.865-1.1569 0-.6499.29-1.1378.865-1.1378.556 0 .854.4538.854 1.1378 0 .6882-.304 1.1569-.854 1.1569z" fill="#fff"/><path d="m448.401 43.4361c.542 0 .846-.2749.968-.5199h.025v.4474h.623v-2.1733c0-.9524-.75-1.142-1.27-1.142-.593 0-1.138.2386-1.351.8352l.598.1364c.094-.2323.333-.456.761-.456.411 0 .622.2152.622.586v.0149c0 .2322-.238.228-.826.2961-.62.0725-1.255.2344-1.255.978 0 .6435.483.9972 1.105.9972zm.139-.5114c-.36 0-.62-.1619-.62-.4773 0-.3409.302-.4623.671-.5113.207-.0277.697-.0831.788-.1747v.4218c0 .3878-.309.7415-.839.7415z" fill="#fff"/><path d="m452.393 40.0909h-.671v-.7841h-.637v.7841h-.48v.5114h.48v1.9325c-.003.5945.451.8821.954.8714.202-.0021.339-.0404.413-.0681l-.115-.5263c-.042.0085-.121.0277-.223.0277-.207 0-.392-.0682-.392-.4368v-1.8004h.671z" fill="#fff"/><path d="m454.473 43.4297c.714 0 1.219-.3516 1.363-.8842l-.603-.1087c-.115.3089-.392.4666-.754.4666-.545 0-.912-.3537-.929-.9844h2.327v-.2258c0-1.1825-.707-1.6449-1.449-1.6449-.912 0-1.513.6946-1.513 1.7003 0 1.0163.593 1.6811 1.558 1.6811zm-.921-1.9879c.026-.4645.363-.8672.88-.8672.495 0 .819.3665.821.8672z" fill="#fff"/><circle cx="398" cy="42" fill="#282c4d" opacity=".5" r="1.75" stroke="#fff" stroke-width=".5"/><path d="m347 41.75h49" stroke="url(#g)" stroke-width=".5"/></svg>