<svg fill="none" height="34" viewBox="0 0 134 34" width="134" xmlns="http://www.w3.org/2000/svg"><g fill="#788293"><path d="m13.7429 2.83333c0-1.56541 1.2769-2.83333 2.8534-2.83333h1.4267c9.4555 0 17.1204 7.61104 17.1204 17v14.1667c0 1.5654-1.2769 2.8333-2.8534 2.8333h-1.4267c-9.4554 0-17.1204-7.611-17.1204-17z" opacity=".56"/><path d="m15.1698 33.9998c7.8795 0 14.267-6.3426 14.267-14.1666 0-7.8241-6.3875-14.1667-14.267-14.1667-7.87942 0-14.266968 6.3426-14.266968 14.1667 0 7.824 6.387548 14.1666 14.266968 14.1666z" opacity=".88"/><path d="m54.6547 27.0119h4.7602l-6.683-18.5119h-5.2039l-6.6777 18.5119h4.7057l1.1064-3.2699h6.8856zm-2.2624-6.7508h-4.5465l2.2567-6.7771zm15.8093 1.2394-3.3909-9.2032h-5.0231l5.9708 14.2136-3.3688 7.4891h4.8422l9.2029-21.7027h-4.8643zm14.3519-1.3185c0-2.5315 1.238-3.2699 3.3691-3.2699h1.2324v-4.773c-1.9721 0-3.5771 1.0548-4.6015 2.6106v-2.4524h-4.4973v14.7146h4.4973zm21.1065-.5274c0-4.6675-3.309-7.5682-7.6253-7.5682-4.2836 0-7.6253 2.9007-7.6253 7.5682s3.265 7.5682 7.5761 7.5682c4.3115 0 7.6745-2.9007 7.6745-7.5682zm-10.6709 0c0-2.5052 1.4188-3.6655 3.0456-3.6655 1.5776 0 3.0514 1.1603 3.0514 3.6655 0 2.4788-1.4956 3.6655-3.1006 3.6655-1.6325 0-2.9964-1.1867-2.9964-3.6655zm20.4109.5801c0 4.773 3.1 6.9618 6.891 6.9618 3.785 0 6.913-2.1888 6.913-6.9618v-11.60284h-2.394v11.62924c0 3.3754-1.786 4.8258-4.497 4.8258-2.706 0-4.52-1.4504-4.52-4.8258v-11.62924h-2.393zm17.798 6.7772h2.388v-18.38004h-2.388z"/></g></svg>