<svg fill="none" height="34" viewBox="0 0 160 34" width="160" xmlns="http://www.w3.org/2000/svg" xmlns:xlink="http://www.w3.org/1999/xlink"><linearGradient id="a" gradientUnits="userSpaceOnUse" x1="16.7442" x2="16.7442" y1="0" y2="33.4884"><stop offset="0" stop-color="#3558ea"/><stop offset="1" stop-color="#00f"/></linearGradient><linearGradient id="b" gradientUnits="userSpaceOnUse" x1="21.1993" x2="6.44922" y1="4.86459" y2="48.8139"><stop offset=".215628" stop-color="#1e1983" stop-opacity="0"/><stop offset=".447191" stop-color="#1e1983" stop-opacity=".19"/><stop offset=".619792" stop-color="#1e1983"/></linearGradient><clipPath id="c"><path d="m0 0h160v33.4884h-160z"/></clipPath><g clip-path="url(#c)"><path d="m33.4884 16.7442c0-9.24757-7.4967-16.7442-16.7442-16.7442-9.24757 0-16.7442 7.49663-16.7442 16.7442 0 9.2475 7.49663 16.7442 16.7442 16.7442 9.2475 0 16.7442-7.4967 16.7442-16.7442z" fill="url(#a)"/><path d="m33.4884 16.7442c0-9.24757-7.4967-16.7442-16.7442-16.7442-9.24757 0-16.7442 7.49663-16.7442 16.7442 0 9.2475 7.49663 16.7442 16.7442 16.7442 9.2475 0 16.7442-7.4967 16.7442-16.7442z" fill="url(#b)" fill-opacity=".56"/><g fill="#fff"><path d="m17.0107 6.27905c2.6515 0 5.1546.97964 7.0916 2.76564.1074.09904.1085.2672.0052.37046l-4.1 4.09995c-.0992.0994-.2587.1018-.3674.0128-.7405-.6062-1.6593-.9355-2.6277-.9355-2.2926-.0015-4.1567 1.8626-4.1567 4.1518h-6.31499c0-5.7705 4.69779-10.46515 10.46999-10.46515z"/><path d="m12.8557 16.7441c0 2.1486 1.6417 3.922 3.7373 4.1325.1398.0141.2509.1286.2509.269v5.7979c0 .146-.1204.2642-.2664.2582-5.5734-.2284-10.03679-4.832-10.03679-10.4576z"/><path d="m23.2325 17.5747h-2.4691c-.1446 0-.2617.1172-.2617.2617v2.4674c0 .1446.1171.2617.2617.2617h2.4691c.1444 0 .2615-.1171.2615-.2617v-2.4674c0-.1445-.1171-.2617-.2615-.2617z" opacity=".56"/><path d="m26.5549 17.5747h-2.4691c-.1445 0-.2616.1172-.2616.2617v2.4674c0 .1446.1171.2617.2616.2617h2.4691c.1445 0 .2617-.1171.2617-.2617v-2.4674c0-.1445-.1172-.2617-.2617-.2617z" opacity=".4"/><path d="m23.2325 20.8977h-2.4691c-.1446 0-.2617.1171-.2617.2616v2.4675c0 .1445.1171.2616.2617.2616h2.4691c.1444 0 .2615-.1171.2615-.2616v-2.4675c0-.1445-.1171-.2616-.2615-.2616z" opacity=".72"/><path d="m19.9086 20.8977h-2.4692c-.1444 0-.2615.1171-.2615.2616v2.4675c0 .1445.1171.2616.2615.2616h2.4692c.1445 0 .2616-.1171.2616-.2616v-2.4675c0-.1445-.1171-.2616-.2616-.2616z" opacity=".88"/><path d="m26.5549 20.8977h-2.4691c-.1445 0-.2616.1171-.2616.2616v2.4675c0 .1445.1171.2616.2616.2616h2.4691c.1445 0 .2617-.1171.2617-.2616v-2.4675c0-.1445-.1172-.2616-.2617-.2616z" opacity=".56"/><path d="m23.2325 24.2185h-2.4691c-.1446 0-.2617.1171-.2617.2616v2.4675c0 .1445.1171.2616.2617.2616h2.4691c.1444 0 .2615-.1171.2615-.2616v-2.4675c0-.1445-.1171-.2616-.2615-.2616z" opacity=".88"/><path d="m19.9086 24.2185h-2.4692c-.1444 0-.2615.1171-.2615.2616v2.4675c0 .1445.1171.2616.2615.2616h2.4692c.1445 0 .2616-.1171.2616-.2616v-2.4675c0-.1445-.1171-.2616-.2616-.2616z" opacity=".96"/><path d="m26.5549 24.2185h-2.4691c-.1445 0-.2616.1171-.2616.2616v2.4675c0 .1445.1171.2616.2616.2616h2.4691c.1445 0 .2617-.1171.2617-.2616v-2.4675c0-.1445-.1172-.2616-.2617-.2616z" opacity=".72"/><path d="m52.9692 9.41853h2.6372v15.11997c0 .967-.225 1.8656-.675 2.6958-.4396.84-1.036 1.5677-1.7895 2.1831-.7535.625-1.6117 1.1086-2.5744 1.4504-.9628.3517-1.9675.5275-3.014.5275-1.0884 0-2.1401-.2295-3.1553-.6886-1.015-.4493-1.9046-1.055-2.6685-1.8168-.7535-.7521-1.2977-1.5969-1.6326-2.5346l2.4174-1.0256c.1989.6739.5547 1.2795 1.0675 1.8167.5232.547 1.1302.9768 1.8209 1.2893.7012.3224 1.418.4835 2.1506.4835.6907 0 1.3553-.1123 1.9936-.3369.6488-.2247 1.2297-.5373 1.7424-.9377.5233-.3907.9314-.8546 1.2245-1.3918.3034-.5275.4552-1.0989.4552-1.7143v-2.9156c-.5337.84-1.2402 1.5237-2.1192 2.0512-.8686.5177-1.8838.7765-3.0453.7765-1.1093 0-2.1506-.2002-3.1239-.6006-.9733-.4005-1.8262-.9524-2.5587-1.6557-.7326-.713-1.3081-1.5334-1.7267-2.4614-.4186-.9279-.6279-1.9241-.6279-2.9888 0-1.0646.2093-2.0609.6279-2.9888.4186-.9377.9941-1.7582 1.7267-2.4614.7325-.713 1.5854-1.2698 2.5587-1.67025.9733-.40047 2.0146-.6007 3.1239-.6007 1.1615 0 2.1767.25884 3.0453.77651.879.51764 1.5855 1.20144 2.1192 2.05114zm-5.1488 12.64397c1.0151 0 1.8941-.2442 2.6372-.7325.7535-.4884 1.3342-1.138 1.7424-1.9487.4081-.8107.6122-1.6897.6122-2.6372 0-.9767-.2093-1.8656-.6279-2.6665-.4081-.8107-.9889-1.4553-1.7424-1.934-.7431-.4883-1.6169-.7325-2.6215-.7325-.9837 0-1.8837.2393-2.7.7179s-1.4651 1.1233-1.9465 1.934c-.471.8009-.7064 1.6946-.7064 2.6811s.2406 1.8851.7221 2.6958c.4918.801 1.1406 1.4408 1.9464 1.9194.8163.4688 1.7111.7032 2.6844.7032z"/><path d="m58.1251 24.0697v-14.65117h2.6372v1.83147c.5547-.6837 1.2558-1.2259 2.1036-1.62635.8476-.41023 1.7685-.61535 2.7628-.61535.6069 0 1.193.07326 1.7581.21977l-1.0674 2.46143c-.4292-.127-.8478-.1905-1.2559-.1905-.7849 0-1.5069.1807-2.1663.5421-.6488.3517-1.1669.8303-1.554 1.4359-.3873.6055-.5809 1.2795-.5809 2.0218v8.5709z"/><path d="m79.8838 9.41853h2.6372v14.65117h-2.6372l-.1098-2.476c-.492.8498-1.1721 1.5383-2.0408 2.0658-.8581.5274-1.8837.7911-3.0767.7911-1.1512 0-2.2291-.2002-3.2337-.6006-1.0047-.4103-1.8943-.9719-2.6687-1.685-.7639-.7227-1.3604-1.553-1.7895-2.4907-.4291-.9376-.6436-1.9485-.6436-3.0327 0-1.0451.2093-2.0316.6279-2.9595s.9995-1.7386 1.7424-2.4321c.7535-.7033 1.6222-1.25026 2.6059-1.64096.9837-.40051 2.0407-.60074 3.1709-.60074 1.2349 0 2.318.27349 3.2495.82047.9313.53723 1.6848 1.23563 2.2604 2.09513zm-5.2744 12.64397c1.0361 0 1.9308-.2344 2.6843-.7032.764-.4786 1.35-1.1233 1.7581-1.934.4186-.8107.6279-1.7044.6279-2.6812 0-.9963-.2093-1.8949-.6279-2.6958-.4186-.8107-1.0099-1.4504-1.7738-1.9193-.7535-.4786-1.643-.7179-2.6686-.7179-1.036 0-1.9779.2393-2.8256.7179-.8476.4786-1.5227 1.1233-2.025 1.934-.4918.8009-.7378 1.6946-.7378 2.6811s.2564 1.8851.7692 2.6958c.5128.801 1.193 1.4408 2.0407 1.9194.8477.4688 1.7738.7032 2.7785.7032z"/><path d="m94.6651 9.4187h2.7944l-8.5868 21.9767h-2.7942l2.8413-7.3255-5.6354-14.6512h2.8883l4.0657 11.2667z"/><path d="m110.798 9.41853h2.637v15.11997c0 .967-.225 1.8656-.675 2.6958-.439.84-1.036 1.5677-1.79 2.1831-.753.625-1.611 1.1086-2.574 1.4504-.963.3517-1.967.5275-3.014.5275-1.088 0-2.14-.2295-3.155-.6886-1.015-.4493-1.904-1.055-2.6689-1.8168-.7534-.7521-1.2976-1.5969-1.6325-2.5346l2.4174-1.0256c.199.6739.555 1.2795 1.068 1.8167.523.547 1.13.9768 1.821 1.2893.701.3224 1.417.4835 2.15.4835.691 0 1.356-.1123 1.994-.3369.649-.2247 1.23-.5373 1.742-.9377.524-.3907.931-.8546 1.224-1.3918.305-.5275.456-1.0989.456-1.7143v-2.9156c-.534.84-1.24 1.5237-2.119 2.0512-.869.5177-1.884.7765-3.046.7765-1.109 0-2.15-.2002-3.123-.6006-.973-.4005-1.826-.9524-2.5593-1.6557-.7321-.713-1.3079-1.5334-1.7265-2.4614-.4186-.9279-.6279-1.9241-.6279-2.9888 0-1.0646.2093-2.0609.6279-2.9888.4186-.9377.9944-1.7582 1.7265-2.4614.7333-.713 1.5863-1.2698 2.5593-1.67025.973-.40047 2.014-.6007 3.123-.6007 1.162 0 2.177.25884 3.046.77651.879.51764 1.585 1.20144 2.119 2.05114zm-5.149 12.64397c1.015 0 1.894-.2442 2.638-.7325.753-.4884 1.333-1.138 1.742-1.9487.408-.8107.612-1.6897.612-2.6372 0-.9767-.209-1.8656-.628-2.6665-.408-.8107-.989-1.4553-1.742-1.934-.744-.4883-1.617-.7325-2.622-.7325-.984 0-1.883.2393-2.7.7179-.816.4786-1.465 1.1233-1.946 1.934-.471.8009-.707 1.6946-.707 2.6811s.241 1.8851.723 2.6958c.491.801 1.14 1.4408 1.946 1.9194.816.4688 1.711.7032 2.684.7032z"/><path d="m115.953 24.0697v-14.65117h2.638v1.83147c.555-.6837 1.256-1.2259 2.104-1.62635.847-.41023 1.768-.61535 2.763-.61535.606 0 1.192.07326 1.758.21977l-1.068 2.46143c-.429-.127-.848-.1905-1.256-.1905-.785 0-1.507.1807-2.166.5421-.649.3517-1.167.8303-1.554 1.4359-.387.6055-.581 1.2795-.581 2.0218v8.5709z"/><path d="m125.888 9.41867h2.638v14.65113h-2.638zm1.351-2.38814c-.419 0-.769-.12698-1.052-.38093-.283-.25396-.424-.5714-.424-.95233s.141-.69837.424-.95233c.283-.25395.628-.38093 1.036-.38093.409 0 .754.12698 1.037.38093.281.25396.423.5714.423.95233s-.142.69837-.423.95233c-.273.25395-.614.38093-1.021.38093z"/><path d="m143.463 2.09302h2.637v21.97678h-2.637v-2.4907c-.534.8595-1.251 1.553-2.15 2.0804-.901.5275-1.958.7912-3.172.7912-1.14 0-2.208-.2002-3.202-.6007-.994-.4004-1.873-.9523-2.638-1.6556-.753-.713-1.344-1.5335-1.773-2.4614s-.643-1.9242-.643-2.9888c0-1.0647.214-2.0609.643-2.9889.429-.9376 1.02-1.7581 1.773-2.4614.765-.713 1.644-1.2697 2.638-1.67018.994-.40047 2.062-.6007 3.202-.6007 1.214 0 2.271.26372 3.172.79121.899.52747 1.616 1.22097 2.15 2.08047zm-5.29 19.96958c1.035 0 1.93-.2344 2.684-.7033.764-.4786 1.35-1.1232 1.758-1.9339.418-.8107.628-1.7045.628-2.6812 0-.9963-.21-1.8949-.628-2.6958-.419-.8107-1.009-1.4505-1.774-1.9193-.754-.4786-1.643-.7179-2.668-.7179-1.036 0-1.979.2393-2.826.7179-.837.4786-1.507 1.1233-2.009 1.934-.503.8009-.754 1.6946-.754 2.6811s.257 1.8851.769 2.6958c.513.8009 1.194 1.4407 2.041 1.9193.848.4689 1.774.7033 2.779.7033z"/><path d="m153.398 24.348c-.848-.0293-1.674-.1757-2.481-.4395-.795-.2734-1.496-.6397-2.103-1.0988-.596-.4688-1.031-1.006-1.303-1.6116l2.26-.9084c.157.3321.44.6447.849.9377.407.293.879.5274 1.412.7032.534.1759 1.073.2638 1.617.2638.575 0 1.115-.083 1.617-.2491.502-.166.91-.4102 1.224-.7325.325-.3321.487-.7277.487-1.1868 0-.4884-.178-.8693-.534-1.1428-.345-.2833-.784-.5031-1.318-.6593-.524-.166-1.057-.3224-1.601-.4688-1.078-.254-2.041-.5567-2.889-.9084-.848-.3614-1.518-.8156-2.009-1.3626-.482-.5567-.723-1.2648-.723-2.1243 0-.9084.267-1.6947.801-2.3589.544-.6642 1.256-1.17696 2.135-1.53835.879-.36144 1.821-.54214 2.825-.54214 1.267 0 2.423.25395 3.47.76186 1.046.50793 1.826 1.19653 2.339 2.06583l-2.12 1.1574c-.177-.3516-.45-.6592-.815-.923-.367-.2734-.785-.4883-1.256-.6446-.472-.1563-.953-.2394-1.445-.2491-.606-.0196-1.177.0537-1.711.2198-.523.166-.946.42-1.271.7618-.315.3321-.471.7472-.471 1.2454 0 .4883.168.8595.502 1.1134.346.254.79.4591 1.334.6154.555.1465 1.157.3175 1.806.5128.952.2833 1.842.6105 2.668.9816.827.3712 1.491.8352 1.993 1.3919.514.5568.765 1.2453.754 2.0658 0 .8986-.288 1.6849-.863 2.3589-.575.6642-1.324 1.172-2.245 1.5236-.911.3517-1.888.5079-2.935.4688z"/></g></g></svg>