<svg fill="none" height="29" viewBox="0 0 179 29" width="179" xmlns="http://www.w3.org/2000/svg"><g fill="#788293"><path d="m43.1454 2.23047h-4.2047v24.00593h14.2641v-3.8694h-10.0594z"/><path d="m58.0318 6.75993c1.314 0 2.4013-1.08735 2.4013-2.43784 0-1.3502-1.0873-2.3924-2.4013-2.3924-1.3775 0-2.4651 1.05111-2.4651 2.4016 0 1.3502 1.0965 2.42864 2.4651 2.42864zm-1.9938 19.48407h4.0055v-16.2399h-4.0055z"/><path d="m68.1975 26.2353v-8.7359c0-2.6282 1.5044-4.3407 3.9782-4.3407 2.0754 0 3.4164 1.3139 3.4164 4.0416v9.035h4.0058v-9.9955c0-4.205-2.1025-6.73345-6.1808-6.73345-2.202 0-4.1685.95165-5.1833 2.60085l-.3354-2.1025h-3.7155v16.2398h4.0054z"/><path d="m90.7991 26.6705c4.2321 0 7.1953-2.1296 7.8841-5.6913h-3.7156c-.4621 1.5409-1.9029 2.4016-4.1142 2.4016-2.6644 0-4.1688-1.45-4.4678-4.3046l12.2162-.0362v-1.2144c0-5.0658-3.0904-8.31925-7.9569-8.31925-4.8664 0-8.0836 3.51625-8.0836 8.60935 0 5.0928 3.3894 8.5458 8.2197 8.5458zm-.0998-13.8653c2.4016 0 3.9422 1.477 3.9422 3.7156h-8.1472c.3896-2.4289 1.8396-3.7156 4.205-3.7156z"/><path d="m103.822 6.75993c1.314 0 2.402-1.08735 2.402-2.43784 0-1.3502-1.088-2.3924-2.402-2.3924-1.377 0-2.456 1.05111-2.456 2.4016 0 1.3502 1.07 2.42864 2.456 2.42864zm-2.012 19.48407h4.006v-16.2399h-4.006z"/><path d="m109.017 18.0966c0 5.1563 3.217 8.5728 8.147 8.5728 4.232 0 7.394-2.6009 7.884-6.3797h-4.042c-.426 1.7761-1.84 2.7639-3.842 2.7639-2.565 0-4.142-1.9032-4.142-4.957 0-3.0542 1.713-4.9936 4.268-4.9936 1.904 0 3.254.9516 3.716 2.8005h4.006c-.426-3.9152-3.453-6.38006-7.885-6.38006-4.784 0-8.11 3.55246-8.11 8.57316z"/><path d="m127.069 18.0971c0 5.0657 3.643 8.5458 8.682 8.5458s8.673-3.4801 8.673-8.5458c0-5.0661-3.644-8.54583-8.673-8.54583-5.021 0-8.682 3.47973-8.682 8.54583zm4.015 0c0-2.9636 1.903-4.9571 4.667-4.9571s4.667 2.0027 4.667 4.9571c0 2.9543-1.903 4.957-4.667 4.957s-4.667-2.0027-4.667-4.957z"/><path d="m151.596 26.2353v-8.7359c0-2.6282 1.505-4.3407 3.979-4.3407 2.075 0 3.416 1.3139 3.416 4.0416v9.035h4.006v-9.9955c0-4.205-2.102-6.73345-6.181-6.73345-2.202 0-4.168.95165-5.183 2.60085l-.336-2.1025h-3.715v16.2398h4.006z"/><path d="m178.903 21.3497c0 3.2808-2.791 5.3289-6.797 5.3289-4.005 0-6.597-2.175-6.606-5.347h3.797c.027 1.4137 1.087 2.3018 2.918 2.3018 1.83 0 2.891-.7612 2.891-1.9392 0-.8248-.417-1.4137-1.867-1.7399l-2.927-.6979c-2.918-.6525-4.332-2.039-4.332-4.631 0-3.1898 2.682-5.10196 6.434-5.10196s6.099 2.11176 6.135 5.26536h-3.806c-.018-1.3775-.951-2.2656-2.492-2.2656s-2.492.725-2.492 1.9303c0 .9243.734 1.5043 2.102 1.8396l2.928.6977c2.519.5709 3.896 1.6855 4.078 3.8243l.018.5438z"/><path d="m23.5278 25.5726c1.0512-1.0511 1.0512-2.7639 0-3.8153l-18.32405-18.32394c-1.05123-1.05112-2.76399-1.05112-3.81522 0-1.051244 1.05111-1.051244 2.75504 0 3.81536l18.32407 18.32388c1.0512 1.0512 2.764 1.0512 3.8152 0z"/><path d="m23.0372 12.044c1.0513-1.0514 1.0513-2.76428 0-3.81539l-7.4311-7.440058c-1.0512-1.051403-2.764-1.051403-3.8152 0-1.0513 1.051118-1.0513 2.763958 0 3.815068l7.4401 7.44038c1.0513 1.0511 2.7641 1.0511 3.8153 0z"/><path d="m13.1383 28.2117c1.0513-1.0511 1.0513-2.7639 0-3.815l-7.44015-7.4404c-1.05123-1.0511-2.76401-1.0511-3.81524 0-1.051235 1.0511-1.051235 2.764 0 3.8154l7.44017 7.44c1.05122 1.0512 2.76402 1.0512 3.81522 0z"/></g></svg>