<svg fill="none" height="24" viewBox="0 0 143 24" width="143" xmlns="http://www.w3.org/2000/svg" xmlns:xlink="http://www.w3.org/1999/xlink"><clipPath id="a"><path d="m.585815 0h141.778v23.3415h-141.778z"/></clipPath><g clip-path="url(#a)" fill="#788293"><path d="m30.4825 19.4846h2.8675v-5.3158h3.035c3.6656 0 5.5871-2.1882 5.5871-5.2558 0-3.06756-1.9707-5.21585-5.5871-5.21585h-5.9123zm2.8675-7.6639v-5.69548h2.631c2.1481 0 3.104 1.14909 3.104 2.82775 0 1.67863-.9854 2.86773-3.0843 2.86773zm13.7954-8.08358h-2.7591v15.74748h2.8084zm6.3065 15.98728c.6993.0704 1.4038-.0634 2.0306-.3856s1.1497-.8194 1.507-1.4329h.0887v1.6187h2.6901v-7.9437c0-3.11754-2.562-4.05679-4.8284-4.05679-2.5029 0-4.4244 1.10912-5.0354 3.25739l2.6212.3697c.1914-.483.532-.8901.9708-1.16033.4388-.27021.9521-.38896 1.4631-.33845 1.3007 0 1.9707.65948 1.9707 1.81858 0 .7993-.8474.8393-2.9561 1.0591-2.3058.2498-4.5131.9293-4.5131 3.5872.0591 2.3781 1.7638 3.6071 4.0302 3.6071zm.7292-1.9984c-1.1726 0-1.9708-.5296-1.9708-1.5488s.9854-1.5188 2.1876-1.6886c.8847-.0584 1.7554-.2538 2.5817-.5796v1.3889c-.0196.3431-.1074.6786-.2581.9863-.1508.3078-.3614.5814-.6191.8045s-.5573.3911-.8807.4937-.664.1379-1.0012.1036zm8.366 1.8086h2.7985v-11.85062h-2.7591zm1.4091-13.48932c.2109.01496.4226-.01381.6222-.08454s.3829-.18195.5387-.32687c.1558-.14491.2809-.3205.3676-.51604s.1333-.40695.1368-.62132c-.0319-.4138-.2165-.8002-.5169-1.08204-.3005-.28184-.6948-.4384-1.1041-.4384s-.8036.15656-1.104.4384c-.3005.28184-.4851.66824-.517 1.08204.018.41705.1981.80992.5009 1.09268.3029.28275.7038.43237 1.1152.41612zm7.0751 6.56482c-.0367-.3549.0035-.7136.1179-1.051.1143-.3374.3-.6454.5441-.9024s.5406-.4568.8688-.5854c.3282-.12857.6801-.18288 1.0312-.15909.3235-.01879.6472.03492.948.15729.3008.1224.5714.3104.7924.5508.221.2403.3872.5271.4866.8399s.1297.644.0886.97v7.0844h2.7985v-7.544c0-2.82778-1.616-4.44649-4.0696-4.44649-.739-.05721-1.4772.11973-2.1126.50636-.6355.38663-1.1369.96386-1.4348 1.65192h-.138v-1.99841h-2.6802v11.80062h2.7985zm11.1743 6.9145 1.6948-4.7463h6.6613l1.6948 4.7463h1.5175l-5.7251-15.77749h-1.5569l-5.7645 15.73749zm2.158-5.9953 2.8576-7.91368h.0788l2.8084 7.84378zm16.1214 6.285c.782.0233 1.553-.1982 2.207-.6344s1.159-1.0659 1.448-1.8036h.168v2.1882h1.35v-15.81739h-1.39v6.1651h-.128c-.283-.73416-.784-1.36107-1.433-1.79421-.65-.43313-1.416-.65112-2.193-.62387-2.9561 0-4.9268 2.45805-4.9268 6.09517 0 3.6371 2.02 6.1451 4.9368 6.1451zm.167-1.249c-2.3649 0-3.6656-2.1383-3.6656-4.8861s1.281-4.82615 3.6656-4.82615c2.385 0 3.636 1.99845 3.636 4.82615 0 2.8278-1.291 4.8062-3.606 4.8062zm8.928.9992h1.369v-7.6539c-.026-.4065.032-.8141.17-1.1969.137-.3827.352-.73228.63-1.02641.278-.29412.613-.52639.984-.68205.372-.15566.771-.23131 1.173-.22213.349-.02316.7.03081 1.027.1582.327.12738.623.32514.867.57967.245.25452.432.55972.549.89462.117.335.16.6916.128 1.0454v7.9936h1.37v-7.7438c-.032-.3888.019-.78.15-1.1471.13-.367.337-.7012.606-.97991.27-.27871.595-.49537.954-.63525.359-.13989.744-.19972 1.128-.17543.363-.02667.726.02868 1.065.16207.339.13338.645.34147.895.6092.249.26774.438.58842.55.93892.113.3505.147.7219.101 1.0876v7.9137h1.38v-7.9037c0-2.64791-1.37-4.0468-3.577-4.0468-.733-.05163-1.464.12688-2.093.51125-.63.38436-1.127.95595-1.425 1.63704h-.099c-.268-.62529-.706-1.16013-1.263-1.54183s-1.21-.59445-1.883-.61333c-.672-.01888-1.335.15691-1.913.50676-.577.34984-1.044.85926-1.346 1.46855h-.128v-1.81856h-1.34zm18.722 0h1.389v-11.88052h-1.389zm.7-13.83896c.133.00677.267-.01406.392-.06123s.24-.1197.337-.21317c.096-.09347.173-.20592.226-.33053.052-.1246.079-.25875.079-.39428 0-.27826-.109-.54512-.303-.74187-.194-.19676-.457-.3073-.731-.3073-.275 0-.538.11054-.732.3073-.194.19675-.303.46361-.303.74187.01.13229.046.26125.105.37937.06.11811.142.22302.242.30859s.216.15009.341.18981c.124.03971.256.05382.386.0415zm5.705 6.45486c-.028-.4401.036-.8814.187-1.2947.152-.4134.388-.7895.693-1.10375.306-.31423.673-.55944 1.078-.71953.406-.16009.84-.23144 1.274-.20937.406-.01737.81.05338 1.187.2075.376.15412.716.38805.995.68611.28.29804.494.65334.628 1.04214.133.3887.183.8018.146 1.2118v7.5639h1.38v-7.7238c0-2.7978-1.636-4.31659-4.03-4.31659-.713-.05597-1.426.10412-2.049.45994s-1.127.89131-1.45 1.53847h-.128v-1.83854h-1.34v11.80062h1.38z"/><path d="m26.3635 10.172-5.0846-8.66309c-.2583-.45783-.6313-.83843-1.0811-1.103348s-.9607-.40477578-1.4809-.40544843h-10.11006c-.52521-.00463549-1.04215.13270443-1.49764.39789043-.45549.265185-.83309.648636-1.09393 1.110906l-5.055043 8.66309c-.246659.46-.375876.9753-.375876 1.4988 0 .5236.129217 1.0389.375876 1.4989l5.055043 8.6631c.26084.4622.63844.8457 1.09393 1.1109s.97243.4025 1.49764.3979h10.11006c.5193.0003 1.0294-.138 1.4792-.4012.4497-.2631.8232-.6417 1.0828-1.0976l5.0551-8.6632c.2521-.4589.3868-.9746.392-1.5.0051-.5253-.1195-1.0436-.3625-1.5076zm-1.9707 1.8785-5.0846 8.6632c-.068.125-.1703.2274-.2945.2948-.1241.0673-.2648.0968-.4052.0849h-10.00166c-.13914.004-.27691-.0289-.39964-.0955s-.22614-.1646-.29998-.2842l-5.04519-8.6632c-.06323-.127-.09617-.2673-.09617-.4096s.03294-.2827.09617-.4097l5.05504-8.65313c.06801-.12504.17027-.22743.29442-.29481s.26489-.09686.40521-.08489h10.1002c.1392-.00407.2769.02883.3997.09544.1227.0666.2261.1646.3.28426l5.055 8.66313c.0664.1273.0953.2714.083.415-.0122.1435-.065.2804-.152.3943z"/><path d="m18.2637 6.22517h-2.0299c-.7939-.00546-1.5581.30579-2.1278.86658-.5696.56079-.899 1.32618-.9171 2.13104v2.18821h-2.1974c-.7939-.0054-1.55811.3058-2.12774.8666s-.89902 1.3262-.9171 2.1311v1.9984c.00519.4249.17598.8305.47507 1.1281.29909.2977.70218.4633 1.12126.4606h1.97081c.7939.0055 1.5581-.3058 2.1277-.8666s.899-1.3261.9171-2.131v-2.1483h2.2073c.7939.0055 1.5581-.3058 2.1277-.8666.5697-.5608.8991-1.3262.9171-2.13101v-1.99842c.004-.20995-.033-.41864-.1086-.61413s-.1885-.37395-.3322-.5252c-.1436-.15125-.3153-.27231-.5051-.35628s-.3941-.12919-.6011-.13309zm-5.0748 8.79303c-.0025.2139-.0466.4252-.1297.6218-.0832.1966-.2036.3747-.3546.524-.151.1494-.3295.2672-.5254.3466s-.4052.1189-.6162.1163h-1.97075c-.04538.0001-.08906-.0175-.12206-.0491-.03299-.0316-.05278-.0748-.05531-.1208v-1.9984c.00258-.2139.04667-.4251.12978-.6217.0831-.1967.20358-.3747.35457-.5241.15097-.1494.32947-.2672.52537-.3466s.4052-.1189.6162-.1163h2.1974zm5.2521-5.21587c-.0052.43287-.1791.84607-.4837 1.14937s-.7152.472-1.1421.4693h-2.2073v-2.18822c.0013-.21474.0444-.42709.1269-.62485.0826-.19776.2029-.37702.354-.52747.1511-.15044.33-.2691.5265-.34914s.4067-.11989.6185-.11725h2.0299c.047 0 .0921.01894.1254.05267s.0519.07948.0519.12718z" stroke="#788293" stroke-width=".5"/></g></svg>