<svg fill="none" height="36" viewBox="0 0 161 36" width="161" xmlns="http://www.w3.org/2000/svg" xmlns:xlink="http://www.w3.org/1999/xlink"><clipPath id="a"><path d="m1 0h36v36h-36z"/></clipPath><g fill="#788293"><g clip-path="url(#a)"><path d="m36.9424 16.5169c-.0177-.1796-.1008-.3464-.2336-.4686-.1328-.1221-.306-.1911-.4864-.1938h-17.9424c-.4872.0119-.9628.1511-1.3797.4037-.4168.2526-.7603.6099-.9963 1.0363-.2185.3814-.3334.8133-.3334 1.2528s.1149.8714.3334 1.2528c.0624.1199.155.2215.2686.2947.1136.0733.2444.1156.3793.1229h19.7137c.1805-.0027.3536-.0717.4864-.1939.1328-.1221.216-.2889.2336-.4685 0-.5616 0-1.0368 0-1.44s0-1.0512-.0432-1.5984z" opacity=".72"/><path d="m36.928 16.5169c-.0142-.1784-.0943-.345-.2248-.4674-.1304-.1225-.3019-.192-.4807-.195h-2.88c-.1011.0011-.2007.0235-.2925.0657s-.1737.1032-.2403.1791c-.0672.073-.1175.1598-.1473.2544-.0299.0945-.0386.1945-.0255.2928v1.44c-.0037 2.2978-.586 4.5577-1.6933 6.571-1.1074 2.0134-2.7041 3.7154-4.6428 4.949-.2016.1296-.3887.288-.6047.4032-1.0566.6018-2.1903 1.0571-3.3697 1.3536l1.8865 3.3552c.064.1109.1565.2028.2679.2661.1114.0632.2375.0957.3656.0939.0762.0137.1543.0137.2305 0l.4607-.1872.4176-.1728c.637-.2646 1.2574-.5675 1.8577-.9072 2.8076-1.5815 5.1404-3.8861 6.756-6.6742 1.6156-2.788 2.4551-5.9579 2.4312-9.1802 0-.5328-.0289-.9504-.0721-1.44z"/><path d="m26.735 30.1848c-.0968-.1642-.2506-.2872-.4321-.3456h-.2016c-.125.0011-.2482.0306-.36.0864-2.0534 1.1684-4.3766 1.7791-6.7391 1.7712-3.6258-.0076-7.101-1.4513-9.66483-4.0151-2.56385-2.5639-4.00758-6.039-4.01519-9.6648.00761-3.6259 1.45134-7.101 4.01519-9.66486 2.56383-2.56385 6.03903-4.00758 9.66483-4.01519 2.3614.00076 4.6825.61082 6.7391 1.7712.1075.06823.2327.10329.36.1008h.1584c.0987-.0218.1919-.06374.2737-.12321.0817-.05946.1504-.13518.2016-.22239l1.44-2.5056c.0952-.16664.1214-.36393.0729-.54963-.0484-.1857-.1677-.34506-.3322-.44397-2.7105-1.531703-5.7713-2.3353835-8.8847-2.3327938-4.7716.0076163-9.34552 1.9064838-12.71952 5.2804938-3.37401 3.374-5.27286 7.94795-5.28047 12.71955.00761 4.7715 1.90646 9.3455 5.28047 12.7195 3.374 3.374 7.94792 5.2728 12.71952 5.2804 3.1134.0026 6.1742-.8011 8.8847-2.3328.0824-.0462.1547-.1085.2125-.1832.0579-.0747.1001-.1602.1243-.2515s.0298-.1866.0165-.2801-.0453-.1834-.094-.2644z"/><path d="m21.0592 20.1598h-4.5503c-.129-.0092-.2541-.0494-.3644-.117-.1102-.0677-.2026-.1609-.2693-.2718l8.3665 14.8176c.0641.1109.1565.2028.2679.2661s.2376.0957.3656.0939c.0811.0137.1639.0137.2449 0 .9515-.3426 1.8718-.7666 2.7505-1.2672.0823-.0462.1544-.1085.2123-.1832.0578-.0747.1001-.1602.1243-.2516.0241-.0913.0298-.1865.0165-.2801-.0133-.0935-.0453-.1834-.094-.2643z" opacity=".56"/></g><path d="m57.4219 11.5475v16.5535h-3.1749v-16.5535h-4.8373v-2.73599h12.8359v2.73599z"/><path d="m73.1058 15.9326h3.0795v12.1684h-3.0795v-1.2743c-1.2627 1.0827-2.6208 1.6241-4.0743 1.6241-1.835 0-3.352-.608-4.5512-1.824-1.19-1.241-1.785-2.7902-1.785-4.6475 0-1.824.595-3.344 1.785-4.56 1.1901-1.216 2.6799-1.824 4.4695-1.824 1.5443 0 2.9296.583 4.156 1.749zm-7.2765 6.0467c0 1.166.3407 2.1155 1.022 2.8485.6995.7412 1.5807 1.1119 2.6435 1.1119 1.1355 0 2.053-.3582 2.7525-1.0745.6995-.7412 1.0492-1.6824 1.0492-2.8234 0-1.1411-.3497-2.0822-1.0492-2.8235-.6995-.7246-1.6079-1.0869-2.7252-1.0869-1.0538 0-1.935.3665-2.6435 1.0994-.6995.7413-1.0493 1.6574-1.0493 2.7485z"/><path d="m83.1211 15.9326v12.1684h-3.0659v-12.1684zm-3.5292-5.0597c0-.4914.1953-.91618.5859-1.27432s.8585-.53721 1.4035-.53721c.5542 0 1.0265.17907 1.4172.53721.3906.34981.5859.77872.5859 1.28682 0 .508-.1953.9411-.5859 1.2993-.3816.3581-.8494.5372-1.4035.5372-.5542 0-1.0266-.1791-1.4172-.5372-.3906-.3582-.5859-.7954-.5859-1.3118z"/><path d="m90.0705 7v21.101h-3.0659v-21.101z"/><path d="m105.359 18.0565h8.694v.6371c0 1.4492-.186 2.7319-.559 3.8479-.363 1.0328-.976 1.9989-1.839 2.8984-1.954 2.0156-4.438 3.0234-7.454 3.0234-2.943 0-5.4642-.9745-7.5626-2.9234-2.0985-1.9573-3.1477-4.306-3.1477-7.0462 0-2.7985 1.0674-5.1722 3.2022-7.1211 2.1348-1.95725 4.7331-2.93588 7.7941-2.93588 1.644 0 3.18.30816 4.606.92449 1.362.61633 2.702 1.61579 4.02 2.99839l-2.262 1.9864c-1.726-2.1072-3.829-3.1608-6.309-3.1608-2.226 0-4.093.7038-5.6008 2.1114-1.508 1.3825-2.2619 3.1149-2.2619 5.1971 0 2.1488.8402 3.9187 2.5208 5.3096 1.5719 1.291 3.2749 1.9365 5.1099 1.9365 1.562 0 2.966-.4831 4.211-1.4492 1.244-.9745 1.939-2.1405 2.084-3.4981h-5.246z"/><path d="m117.473 15.9326h3.066v1.0869c.563-.5413 1.063-.912 1.499-1.1119.445-.2082.972-.3123 1.58-.3123.809 0 1.654.2415 2.535.7246l-1.404 2.5736c-.581-.3831-1.149-.5747-1.703-.5747-1.671 0-2.507 1.1577-2.507 3.4731v6.3091h-3.066z"/><path d="m131.413 15.9326v12.1684h-3.066v-12.1684zm-3.53-5.0597c0-.4914.196-.91618.586-1.27432.391-.35814.859-.53721 1.404-.53721.554 0 1.026.17907 1.417.53721.391.34981.586.77872.586 1.28682 0 .508-.195.9411-.586 1.2993-.382.3581-.849.5372-1.403.5372-.555 0-1.027-.1791-1.418-.5372-.39-.3582-.586-.7954-.586-1.3118z"/><path d="m145.08 7h3.079v21.101h-3.079v-1.2743c-1.208 1.0827-2.576 1.6241-4.102 1.6241-1.817 0-3.324-.608-4.524-1.824-1.19-1.241-1.785-2.7902-1.785-4.6475 0-1.8157.595-3.3315 1.785-4.5475 1.181-1.2243 2.667-1.8365 4.456-1.8365 1.554 0 2.943.583 4.17 1.749zm-7.277 14.9793c0 1.166.341 2.1155 1.022 2.8485.7.7412 1.581 1.1119 2.644 1.1119 1.135 0 2.053-.3582 2.752-1.0745.7-.7412 1.05-1.6824 1.05-2.8234 0-1.1411-.35-2.0822-1.05-2.8235-.699-.7246-1.608-1.0869-2.725-1.0869-1.054 0-1.935.3665-2.643 1.0994-.7.7413-1.05 1.6574-1.05 2.7485z"/><path d="m159.742 18.0065-2.535 1.2368c-.399-.7496-.895-1.1244-1.485-1.1244-.282 0-.522.0875-.722.2624-.2.1666-.3.3831-.3.6496 0 .4664.59.9287 1.771 1.3868 1.626.6413 2.721 1.2326 3.284 1.774.564.5414.845 1.2701.845 2.1863 0 1.1744-.472 2.1572-1.417 2.9484-.917.7496-2.026 1.1244-3.325 1.1244-2.225 0-3.802-.9953-4.728-2.9859l2.616-1.1119c.364.583.641.9537.831 1.1119.373.3165.818.4748 1.336.4748 1.035 0 1.553-.4331 1.553-1.2993 0-.4998-.4-.9662-1.199-1.3993-.309-.1416-.618-.279-.927-.4122-.308-.1333-.622-.2707-.94-.4123-.89-.3998-1.517-.7996-1.88-1.1994-.464-.508-.695-1.1618-.695-1.9614 0-1.0578.395-1.9323 1.185-2.6236.809-.6913 1.79-1.0369 2.944-1.0369 1.698 0 2.961.8037 3.788 2.4112z"/></g></svg>