<svg fill="none" height="30" viewBox="0 0 160 30" width="160" xmlns="http://www.w3.org/2000/svg" xmlns:xlink="http://www.w3.org/1999/xlink"><filter id="a" color-interpolation-filters="sRGB" filterUnits="userSpaceOnUse" height="18.842" width="5.06219" x="6.65582" y="5.62451"><feFlood flood-opacity="0" result="BackgroundImageFix"/><feColorMatrix in="SourceAlpha" result="hardAlpha" type="matrix" values="0 0 0 0 0 0 0 0 0 0 0 0 0 0 0 0 0 0 127 0"/><feOffset dy=".5"/><feGaussianBlur stdDeviation=".5"/><feComposite in2="hardAlpha" operator="out"/><feColorMatrix type="matrix" values="0 0 0 0 0 0 0 0 0 0 0 0 0 0 0 0 0 0 0.12 0"/><feBlend in2="BackgroundImageFix" mode="normal" result="effect1_dropShadow_2130_41"/><feBlend in="SourceGraphic" in2="effect1_dropShadow_2130_41" mode="normal" result="shape"/></filter><filter id="b" color-interpolation-filters="sRGB" filterUnits="userSpaceOnUse" height="12.7178" width="5.06219" x="12.3971" y="11.7485"><feFlood flood-opacity="0" result="BackgroundImageFix"/><feColorMatrix in="SourceAlpha" result="hardAlpha" type="matrix" values="0 0 0 0 0 0 0 0 0 0 0 0 0 0 0 0 0 0 127 0"/><feOffset dy=".5"/><feGaussianBlur stdDeviation=".5"/><feComposite in2="hardAlpha" operator="out"/><feColorMatrix type="matrix" values="0 0 0 0 0 0 0 0 0 0 0 0 0 0 0 0 0 0 0.12 0"/><feBlend in2="BackgroundImageFix" mode="normal" result="effect1_dropShadow_2130_41"/><feBlend in="SourceGraphic" in2="effect1_dropShadow_2130_41" mode="normal" result="shape"/></filter><filter id="c" color-interpolation-filters="sRGB" filterUnits="userSpaceOnUse" height="16.5454" width="5.06229" x="18.1384" y="7.92065"><feFlood flood-opacity="0" result="BackgroundImageFix"/><feColorMatrix in="SourceAlpha" result="hardAlpha" type="matrix" values="0 0 0 0 0 0 0 0 0 0 0 0 0 0 0 0 0 0 127 0"/><feOffset dy=".5"/><feGaussianBlur stdDeviation=".5"/><feComposite in2="hardAlpha" operator="out"/><feColorMatrix type="matrix" values="0 0 0 0 0 0 0 0 0 0 0 0 0 0 0 0 0 0 0.12 0"/><feBlend in2="BackgroundImageFix" mode="normal" result="effect1_dropShadow_2130_41"/><feBlend in="SourceGraphic" in2="effect1_dropShadow_2130_41" mode="normal" result="shape"/></filter><clipPath id="d"><path d="m0 0h160v29.0909h-160z"/></clipPath><g clip-path="url(#d)"><g fill="#fff"><path d="m40 8.34173h5.7066v16.34667h3.4134v-16.34667h5.7066v-3.14666h-14.8266z"/><path d="m58.6363 25.035c2.0532 0 3.84-.9334 4.4-2.2934l.24 1.9467h2.8532v-8c0-3.6533-2.1866-5.5733-5.7332-5.5733-3.5734 0-5.92 1.8666-5.92 4.72h2.7732c0-1.3866 1.0668-2.1866 2.9868-2.1866 1.6533 0 2.72.72 2.72 2.5066v.2933l-3.9468.2933c-3.12.24-4.88 1.76-4.88 4.1868 0 2.4799 1.7068 4.1066 4.5068 4.1066zm1.0666-2.4534c-1.4666 0-2.2666-.5866-2.2666-1.7866 0-1.0667.7733-1.7334 2.8-1.92l2.7466-.2134v.6934c0 2.0266-1.28 3.2266-3.28 3.2266z"/><path d="m70.9523 8.87507c1.0667 0 1.9467-.88 1.9467-1.97333s-.88-1.94666-1.9467-1.94666c-1.12 0-2 .85333-2 1.94666s.88 1.97333 2 1.97333zm-1.6267 15.81333h3.2534v-13.1733h-3.2534z"/><path d="m79.2202 24.6883v-19.83991h-3.2267v19.83991z"/><path d="m84.7929 24.6884 1.5734-4.5067h7.2801l1.5736 4.5067h3.6l-7.04-19.49333h-3.4937l-7.04 19.49333zm4.8-13.68c.1867-.5333.3466-1.11996.4266-1.49332.0534.4.24.98662.4 1.49332l2.2405 6.2933h-5.2805z"/><path d="m105.598 25.0351c2 0 3.707-.88 4.507-2.4l.213 2.0532h2.987v-19.83991h-3.227v8.34671c-.826-1.3067-2.453-2.08-4.293-2.08-3.973 0-6.3732 2.9333-6.3732 7.04 0 4.08 2.3732 6.88 6.1862 6.88zm.72-2.9868c-2.266 0-3.653-1.6532-3.653-3.9999s1.387-4.0267 3.653-4.0267c2.267 0 3.734 1.6534 3.734 4.0267s-1.467 3.9999-3.734 3.9999z"/><path d="m119.949 24.6883v-7.4667c0-2.1332 1.253-3.1466 2.8-3.1466 1.546 0 2.533.9866 2.533 2.8266v7.7867h3.253v-7.4667c0-2.16 1.2-3.1732 2.774-3.1732 1.546 0 2.56.9866 2.56 2.88v7.7599h3.226v-8.6133c0-3.04-1.76-4.96-4.96-4.96-2 0-3.546.9866-4.213 2.5066-.693-1.52-2.08-2.5066-4.08-2.5066-1.893 0-3.227.8534-3.893 1.9466l-.267-1.5466h-2.987v13.1733z"/><path d="m141.915 8.87507c1.068 0 1.948-.88 1.948-1.97333s-.88-1.94666-1.948-1.94666c-1.12 0-2 .85333-2 1.94666s.88 1.97333 2 1.97333zm-1.626 15.81333h3.254v-13.1733h-3.254z"/><path d="m150.157 24.6883v-7.0933c0-2.1334 1.227-3.52 3.227-3.52 1.68 0 2.773 1.0666 2.773 3.28v7.3333h3.253v-8.1067c0-3.4132-1.706-5.4666-5.013-5.4666-1.787 0-3.387.7734-4.213 2.1066l-.267-1.7066h-3.013v13.1733z"/></g><path d="m0 7.6555c0-4.22802 3.42748-7.6555 7.6555-7.6555h13.7799c4.2281 0 7.6555 3.42748 7.6555 7.6555v13.7799c0 4.2281-3.4274 7.6555-7.6555 7.6555h-13.7799c-4.22802 0-7.6555-3.4274-7.6555-7.6555z" fill="#3c50e0"/><g filter="url(#a)"><path d="m7.65582 7.65561c0-.8456.68549-1.5311 1.5311-1.5311.84568 0 1.53108.6855 1.53108 1.5311v13.77989c0 .8456-.6854 1.5311-1.53108 1.5311-.84561 0-1.5311-.6855-1.5311-1.5311z" fill="#fff"/></g><g filter="url(#b)" opacity=".9"><path d="m13.3971 13.7796c0-.8456.6855-1.5311 1.5311-1.5311s1.5311.6855 1.5311 1.5311v7.6555c0 .8456-.6855 1.5312-1.5311 1.5312s-1.5311-.6856-1.5311-1.5312z" fill="#fff"/></g><g filter="url(#c)" opacity=".7"><path d="m19.1384 9.95175c0-.84564.6855-1.5311 1.5311-1.5311s1.5311.68546 1.5311 1.5311v11.48325c0 .8456-.6855 1.5311-1.5311 1.5311s-1.5311-.6855-1.5311-1.5311z" fill="#fff"/></g></g></svg>