<svg fill="none" height="27" viewBox="0 0 103 27" width="103" xmlns="http://www.w3.org/2000/svg" xmlns:xlink="http://www.w3.org/1999/xlink"><clipPath id="a"><path d="m0 0h102.6v27h-102.6z"/></clipPath><g clip-path="url(#a)" fill="#788293"><path d="m94.4408 16.4881 8.1092-9.89857h-3.9805l-7.2709 8.87317v-.0568l-3.2949 4.0432-.7168.8797c-.0205.035-.0404.071-.0616.1061l-1.2353 1.5073c-.2291.2105-.4712.4061-.7264.5833-1.0834.7513-2.3789 1.1881-3.7873 1.1885v.0515c-.9371-.0017-1.8222-.1959-2.6293-.5464-1.2141-.5279-2.2517-1.4128-2.9829-2.5248-.7305-1.1139-1.156-2.445-1.1566-3.8927 0-.9664.1894-1.8783.5314-2.7102.5137-1.2485 1.3749-2.3147 2.4576-3.0662 1.0835-.7509 2.379-1.18743 3.788-1.18806 1.4891.00063 2.8537.48846 3.9727 1.32056l1.7866-2.53382c-1.6149-1.20497-3.6129-1.91728-5.7593-1.91687-1.3522 0-2.6477.28267-3.8242.79415-1.7647.76708-3.2613 2.04522-4.3208 3.65524-1.0589 1.6091-1.6786 3.5599-1.6779 5.6452 0 .0344.0027.0695.0027.1043h-.0533c0 .9653-.1895 1.8779-.5322 2.7098-.5137 1.2476-1.3741 2.3145-2.4562 3.0656-1.0837.7509-2.3796 1.1877-3.7881 1.1886-.9405-.0006-1.8277-.195-2.6378-.5472-1.2139-.527-2.2517-1.4122-2.9834-2.5246-.342-.5214-.6168-1.0916-.8124-1.6984-.1261-.0634-.2622-.1348-.4063-.2137-.6942-.3821-1.5642-.9395-2.2777-1.6711-.2989-.3074-.5668-.6109-.8071-.9047.0158.1959.025.3944.025.5957 0 .9653-.189 1.8779-.5319 2.7098-.5129 1.2476-1.3746 2.3145-2.4567 3.0656-1.0837.7509-2.3796 1.1877-3.7879 1.1886-.9403-.0006-1.8278-.195-2.6379-.5472-1.2142-.527-2.2518-1.4122-2.9827-2.5246-.7312-1.1134-1.1563-2.4454-1.1566-3.8922 0-.9659.1896-1.8785.5319-2.7108.513-1.2477 1.3745-2.3139 2.4568-3.0654 1.0837-.751 2.3791-1.18809 3.7885-1.18836.9395 0 1.8272.19506 2.6373.54676 1.2143.5275 2.2517 1.4124 2.9829 2.5246.0165.0253.0321.0509.0481.0766l.0047-.0018.0002.0022.0046.0115c.0003.0017.0019.0047.0026.0072.0282.0443.0544.0907.0815.1353.0683.1579.2045.4573.4196.8478.0217.0391.0448.0802.068.1214.0176.0433.0373.0856.0539.1292.1998.3346.4543.7192.7686 1.1315.0172.0227.033.0448.0505.0673.2749.3632.598.7421.968 1.1135.0023.0028.0045.005.0065.007.0029.0031.0059.0055.0086.0086.0587.0589.1179.1167.1793.1748.024.0222.0476.0447.0718.0668.3876.3618.8224.7117 1.3152 1.0261.5537.3536 1.1776.6606 1.8684.8814.6911.2214 1.4489.3555 2.2587.3682h.001c.0699.0012.1382.002.2063.002 1.3052.0002 2.4755-.2094 3.5031-.5828.7712-.2796 1.4599-.6499 2.0643-1.0789.907-.6447 1.6225-1.4175 2.1799-2.2093.5575-.7935.959-1.6066 1.2517-2.357.2237-.5745.3386-1.1451.3386-1.6916 0-.3144-.0376-.618-.108-.9009-.1225-.49531-.3414-.91845-.5849-1.25138-.368-.50171-.7797-.81429-1.0998-1.01714-.3236-.2018-.5643-.29513-.6362-.32178l-.0054.01765c-1.2834-.63034-2.7218-.9848-4.2334-.98453-1.3523-.00027-2.6482.28198-3.8244.79366-1.1511.50082-2.1871 1.21923-3.0637 2.10503v-9.6937084h-3.045v8.4436784c.1861.18305.3794.3816.58.59837.7704.83222 1.2695 1.63645 1.7075 2.37605.4389.7418.8178 1.4139 1.3502 2.0274.0808.094.1667.1864.2563.2782.5232-1.0518 1.302-1.952 2.2509-2.6106 1.0828-.751 2.3791-1.18809 3.7882-1.18836 1.2353.00027 2.3825.33616 3.3788.92586l.012-.0216c.0652.0523.1247.1129.1579.1649.0246.0368.0403.0686.052.1052.0109.0366.0212.0793.0212.154 0 .1004-.0192.2666-.1208.529-.1913.4916-.4442 1.0101-.7679 1.5025-.2428.3693-.5254.7243-.8513 1.0478-.491.4854-1.0767.9023-1.8117 1.2079-.7348.3051-1.6248.5019-2.7401.5022-.0523 0-.1043-.0003-.1564-.001h-.0007c-.4607-.008-.8755-.0745-1.2609-.1842-.672-.1919-1.2558-.5186-1.7688-.9201-.1792-.1401-.3484-.2906-.5086-.4461 0-.0007.0003-.0027.0013-.0041-.0769-.0729-.1506-.1466-.2225-.22-.4211-.4462-.7652-.9182-1.0176-1.3248-.1927-.3094-.3909-.5672-.4805-.7506-.0447-.0921-.1338-.235-.1338-.235-.4556-.7721-.9292-1.5568-1.686-2.37518-.0099-.01087-.0198-.0198-.0287-.03074v.00056c-.389-.3771-.8059-.72333-1.2506-1.03189-1.5658-1.08775-3.4637-1.72516-5.4925-1.72433-1.3524-.00027-2.6479.28198-3.8243.79366-1.7648.76757-3.2616 2.04556-4.3205 3.65542-1.0587 1.609-1.6789 3.5595-1.6783 5.6452-.0006 1.3891.2746 2.721.7724 3.9291.7466 1.8138 1.9902 3.3515 3.5573 4.4397 1.5658 1.0885 3.4638 1.7255 5.4934 1.7252 1.3518.0001 2.6479-.2826 3.8239-.7944 1.7647-.7673 3.2611-2.0451 4.3205-3.655.0662-.1016.1311-.2038.1941-.3081.7319 1.2051 1.7016 2.2386 2.8438 3.0323 1.5661 1.0885 3.4641 1.7255 5.4939 1.7252 1.3513.0001 2.6474-.2826 3.8237-.7944 1.7633-.7673 3.2613-2.0451 4.3194-3.655.0739-.1115.145-.2249.2134-.3403.7271 1.174 1.6799 2.1826 2.801 2.9602 1.5657 1.0882 3.4631 1.7252 5.4925 1.725 1.3509.0002 2.6485-.2823 3.8236-.7939 1.0999-.4778 2.0944-1.1541 2.9446-1.9853v2.8181h3.0459v-6.612l1.1429-1.394 6.2531 8.006h3.9054zm-3.1422-16.4714984h-3.0459v16.7364984c0 .454-.0431.8957-.1245 1.3238l3.1704-3.8898z"/><path d="m17.4517 7.19654v8.20246c0 3.8211-2.2829 6.1291-5.7436 6.1291-3.46104 0-5.89073-2.308-5.89073-6.1291v-15.399h-5.81737v15.399c0 6.9994 4.56508 11.3506 11.7081 11.3506 7.1058 0 11.561-4.3512 11.561-11.3506v-15.399h-.1022c-3.0678 1.01223-5.3565 3.80582-5.7152 7.19654z"/><path d="m28.2491 0h-.0999v26.4851h5.8175v-19.28323c-.055-2.94321-2.6479-6.18899-5.7176-7.20187z"/><path d="m17.4517 7.19654v8.20246c0 .0049-.0003.0098-.0003.0153.0014.0816.0057.1625.0057.2447 0 5.5241-4.0487 10.074-9.26228 10.694 1.08503.2597 2.25868.3966 3.51328.3966 7.1058 0 11.5611-4.3512 11.5611-11.3506v-15.399h-.1022c-3.0679 1.01223-5.3566 3.80582-5.7153 7.19654z"/><path d="m5.81737 7.20983v-7.20983h-5.81737v.00116862c3.0929 1.01405138 5.41055 3.80699138 5.81737 7.20866138z"/><path d="m28.1492 18.6367v7.8486h5.7465c-3.2046-1.1621-5.5415-4.2108-5.7465-7.8486z"/></g></svg>