<svg fill="none" height="27" viewBox="0 0 103 27" width="103" xmlns="http://www.w3.org/2000/svg" xmlns:xlink="http://www.w3.org/1999/xlink"><linearGradient id="a" gradientUnits="userSpaceOnUse" x1="19.9084" x2="4.12143" y1="24.1641" y2="-2.44521"><stop offset="0" stop-color="#fff" stop-opacity=".7"/><stop offset="1" stop-color="#fff" stop-opacity=".61"/><stop offset="1" stop-color="#fff" stop-opacity=".42"/></linearGradient><linearGradient id="b" gradientUnits="userSpaceOnUse" x1="2.19868" x2="5.9157" y1="4.53212" y2="-.064233"><stop offset="0" stop-color="#fff"/><stop offset=".327273" stop-color="#fff" stop-opacity=".65"/><stop offset="1" stop-color="#fff" stop-opacity=".2"/></linearGradient><linearGradient id="c" gradientUnits="userSpaceOnUse" x1="31.5001" x2="28.672" y1="17.0999" y2="27.8663"><stop offset="0" stop-color="#fff" stop-opacity="0"/><stop offset="1" stop-color="#fff" stop-opacity=".18"/></linearGradient><clipPath id="d"><path d="m0 0h102.6v27h-102.6z"/></clipPath><g clip-path="url(#d)"><path d="m94.4408 16.4883 8.1092-9.89853h-3.9805l-7.2709 8.87313v-.0568l-3.2949 4.0432-.7168.8797c-.0205.0351-.0404.0711-.0616.1061l-1.2353 1.5074c-.2291.2105-.4712.4061-.7264.5832-1.0834.7514-2.3789 1.1881-3.7873 1.1885v.0515c-.9371-.0016-1.8222-.1958-2.6293-.5464-1.2141-.5278-2.2517-1.4127-2.9829-2.5248-.7305-1.1138-1.156-2.445-1.1566-3.8926 0-.9664.1894-1.8783.5314-2.7103.5137-1.2484 1.3749-2.3146 2.4576-3.0661 1.0835-.751 2.379-1.18749 3.788-1.18811 1.4891.00062 2.8537.48851 3.9727 1.32061l1.7866-2.53388c-1.6149-1.20496-3.6129-1.91728-5.7593-1.91686-1.3522 0-2.6477.28267-3.8242.79414-1.7647.76708-3.2613 2.04522-4.3208 3.6553-1.0589 1.609-1.6786 3.5599-1.6779 5.6452 0 .0344.0027.0694.0027.1042h-.0533c0 .9654-.1895 1.8779-.5322 2.7099-.5137 1.2475-1.3741 2.3144-2.4562 3.0655-1.0837.7509-2.3796 1.1878-3.7881 1.1886-.9405-.0005-1.8277-.1949-2.6378-.5471-1.2139-.5271-2.2517-1.4123-2.9834-2.5246-.342-.5214-.6168-1.0917-.8124-1.6985-.1261-.0634-.2622-.1347-.4063-.2137-.6942-.382-1.5642-.9395-2.2777-1.6711-.2989-.3073-.5668-.6109-.8071-.9046.0158.1958.025.3943.025.5956 0 .9654-.189 1.8779-.5319 2.7099-.5129 1.2475-1.3746 2.3144-2.4567 3.0655-1.0837.7509-2.3796 1.1878-3.7879 1.1886-.9403-.0005-1.8278-.1949-2.6379-.5471-1.2142-.5271-2.2518-1.4123-2.9827-2.5246-.7312-1.1135-1.1563-2.4454-1.1566-3.8923 0-.9659.1896-1.8785.5319-2.7108.513-1.2477 1.3745-2.3139 2.4568-3.0654 1.0837-.7509 2.3791-1.18804 3.7885-1.18832.9395 0 1.8272.19512 2.6373.54672 1.2143.5275 2.2517 1.4124 2.9829 2.5246.0165.0254.0321.0509.0481.0766l.0047-.0018.0002.0022.0046.0115c.0003.0017.0019.0047.0026.0072.0282.0444.0544.0907.0815.1354.0683.1579.2045.4572.4196.8478.0217.039.0448.0801.068.1213.0176.0434.0373.0857.0539.1293.1998.3346.4543.7191.7686 1.1315.0172.0227.033.0448.0505.0672.2749.3633.598.7422.968 1.1136.0023.0027.0045.0049.0065.007.0029.0031.0059.0054.0086.0086.0587.0589.1179.1167.1793.1747.024.0223.0476.0447.0718.0668.3876.3619.8224.7118 1.3152 1.0261.5537.3536 1.1776.6606 1.8684.8814.6911.2214 1.4489.3555 2.2587.3683h.001c.0699.0011.1382.0019.2063.0019 1.3052.0003 2.4755-.2094 3.5031-.5828.7712-.2795 1.4599-.6499 2.0643-1.0789.907-.6447 1.6225-1.4174 2.1799-2.2093.5575-.7934.959-1.6065 1.2517-2.357.2237-.5744.3386-1.1451.3386-1.6915 0-.3145-.0376-.618-.108-.9009-.1225-.49536-.3414-.9185-.5849-1.25143-.368-.50172-.7797-.8143-1.0998-1.01714-.3236-.20181-.5643-.29513-.6362-.32179l-.0054.01766c-1.2834-.63035-2.7218-.98481-4.2334-.98453-1.3523-.00028-2.6482.28197-3.8244.79366-1.1511.50081-2.1871 1.21922-3.0637 2.10503v-9.6937143h-3.045v8.4436843c.1861.18304.3794.3816.58.59836.7704.83222 1.2695 1.63641 1.7075 2.37611.4389.7417.8178 1.4139 1.3502 2.0274.0808.0939.1667.1864.2563.2782.5232-1.0519 1.302-1.9521 2.2509-2.6107 1.0828-.7509 2.3791-1.18804 3.7882-1.18832 1.2353.00028 2.3825.33622 3.3788.92592l.012-.0217c.0652.0523.1247.1129.1579.165.0246.0367.0403.0685.052.1051.0109.0366.0212.0793.0212.1541 0 .1003-.0192.2666-.1208.529-.1913.4915-.4442 1.01-.7679 1.5024-.2428.3693-.5254.7244-.8513 1.0478-.491.4855-1.0767.9023-1.8117 1.208-.7348.305-1.6248.5019-2.7401.5022-.0523 0-.1043-.0003-.1564-.0011h-.0007c-.4607-.008-.8755-.0745-1.2609-.1841-.672-.192-1.2558-.5187-1.7688-.9202-.1792-.1401-.3484-.2905-.5086-.446 0-.0008.0003-.0027.0013-.0042-.0769-.0728-.1506-.1465-.2225-.22-.4211-.4462-.7652-.9182-1.0176-1.3247-.1927-.3094-.3909-.5672-.4805-.7506-.0447-.0922-.1338-.2351-.1338-.2351-.4556-.7721-.9292-1.5568-1.686-2.37513-.0099-.01087-.0198-.0198-.0287-.03074v.00055c-.389-.3771-.8059-.72332-1.2506-1.03188-1.5658-1.08776-3.4637-1.72516-5.4925-1.72433-1.3524-.00028-2.6479.28197-3.8243.79366-1.7648.76756-3.2616 2.04556-4.3205 3.65537-1.0587 1.609-1.6789 3.5596-1.6783 5.6452-.0006 1.3891.2746 2.721.7724 3.9291.7466 1.8138 1.9902 3.3516 3.5573 4.4397 1.5658 1.0886 3.4638 1.7256 5.4934 1.7252 1.3518.0001 2.6479-.2826 3.8239-.7943 1.7647-.7673 3.2611-2.0451 4.3205-3.655.0662-.1016.1311-.2039.1941-.3082.7319 1.2051 1.7016 2.2387 2.8438 3.0323 1.5661 1.0886 3.4641 1.7256 5.4939 1.7252 1.3513.0001 2.6474-.2826 3.8237-.7943 1.7633-.7673 3.2613-2.0451 4.3194-3.655.0739-.1115.145-.2249.2134-.3404.7271 1.174 1.6799 2.1826 2.801 2.9603 1.5657 1.0882 3.4631 1.7251 5.4925 1.7249 1.3509.0002 2.6485-.2823 3.8236-.7939 1.0999-.4778 2.0944-1.1541 2.9446-1.9853v2.8181h3.0459v-6.612l1.1429-1.394 6.2531 8.006h3.9054zm-3.1422-16.4714543h-3.0459v16.7364543c0 .454-.0431.8957-.1245 1.3239l3.1704-3.8899z" fill="#fff"/><path d="m17.4517 7.19654v8.20246c0 3.8211-2.2829 6.1291-5.7436 6.1291-3.46104 0-5.89073-2.308-5.89073-6.1291v-15.399h-5.81737v15.399c0 6.9994 4.56508 11.3506 11.7081 11.3506 7.1058 0 11.561-4.3512 11.561-11.3506v-15.399h-.1022c-3.0678 1.01223-5.3565 3.80582-5.7152 7.19654z" fill="url(#a)"/><path d="m28.2491 0h-.0999v26.4851h5.8175v-19.28323c-.055-2.94321-2.6479-6.18899-5.7176-7.20187z" fill="#fff"/><path d="m17.4517 7.19654v8.20246c0 .0049-.0003.0098-.0003.0153.0014.0816.0057.1625.0057.2447 0 5.5241-4.0487 10.074-9.26228 10.694 1.08503.2597 2.25868.3966 3.51328.3966 7.1058 0 11.5611-4.3512 11.5611-11.3506v-15.399h-.1022c-3.0679 1.01223-5.3566 3.80582-5.7153 7.19654z" fill="#fff"/><path d="m5.81737 7.20983v-7.20983h-5.81737v.00116862c3.0929 1.01405138 5.41055 3.80699138 5.81737 7.20866138z" fill="url(#b)"/><path d="m28.1492 18.6365v7.8485h5.7465c-3.2046-1.162-5.5415-4.2108-5.7465-7.8485z" fill="url(#c)"/></g></svg>